<?xml version="1.0" encoding="UTF-8" standalone="no"?>
<svg
   version="1.1"
   width="512"
   viewBox="0 0 512 512.00001"
   height="512"
   enable-background="new 0 0 512 512"
   id="Capa_1"
   xmlns="http://www.w3.org/2000/svg"
   xmlns:svg="http://www.w3.org/2000/svg"
   xmlns:rdf="http://www.w3.org/1999/02/22-rdf-syntax-ns#"
   xmlns:cc="http://creativecommons.org/ns#"
   xmlns:dc="http://purl.org/dc/elements/1.1/">
  <metadata
     id="metadata19405">
    <rdf:RDF>
      <cc:Work
         rdf:about="">
        <dc:format>image/svg+xml</dc:format>
        <dc:type
           rdf:resource="http://purl.org/dc/dcmitype/StillImage" />
      </cc:Work>
    </rdf:RDF>
  </metadata>
  <defs
     id="defs19403" />
  <g
     transform="translate(0,5e-4)"
     id="g19398">
    <g
       id="g19364">
      <path
         id="path19348"
         fill="#b3e59f"
         d="M 488.468,107.702 H 23.532 c -8.854,0 -16.032,7.178 -16.032,16.032 v 264.532 c 0,8.854 7.178,16.032 16.032,16.032 h 192.387 c 0,17.708 14.356,32.065 32.065,32.065 h 16.032 c 17.709,0 32.065,-14.356 32.065,-32.065 h 192.387 c 8.854,0 16.032,-7.178 16.032,-16.032 V 123.734 c 0,-8.855 -7.178,-16.032 -16.032,-16.032 z" />
      <path
         id="path19350"
         fill="#95d6a4"
         d="m 23.532,107.702 c -8.854,0 -16.032,7.178 -16.032,16.032 v 264.532 c 0,8.854 7.179,16.032 16.032,16.032 h 192.387 c 0,17.708 14.355,32.065 32.065,32.065 h 16.032 c 14.924,0 27.355,-10.243 30.931,-24.048 H 291.633 256 V 380.25 L 39.565,107.702 Z" />
      <path
         id="path19352"
         fill="#faf5dc"
         d="m 288.065,75.637 c -11.384,0 -21.383,5.933 -27.073,14.875 -2.399,3.771 -7.585,3.771 -9.984,0 C 245.318,81.57 235.32,75.637 223.935,75.637 H 47.581 c -4.427,0 -8.016,3.589 -8.016,8.016 v 280.565 c 0,4.427 3.589,8.016 8.016,8.016 h 176.355 c 10.444,0 19.722,4.993 25.577,12.723 3.316,4.378 9.66,4.378 12.976,0 5.854,-7.73 15.132,-12.723 25.577,-12.723 h 176.355 c 4.427,0 8.016,-3.589 8.016,-8.016 V 83.653 c 0,-4.427 -3.589,-8.016 -8.016,-8.016 z" />
      <path
         id="path19354"
         fill="#c3ddff"
         d="m 79.645,243.976 h 72.145 v 80.161 H 79.645 Z" />
      <path
         id="path19356"
         fill="#a4ccff"
         d="m 127.742,300.089 c -13.282,0 -24.048,-10.767 -24.048,-24.048 V 243.976 H 79.645 v 80.161 h 72.145 v -24.048 z" />
      <path
         id="path19358"
         fill="#f5ebcd"
         d="M 63.613,332.153 V 75.637 H 47.581 c -4.427,0 -8.016,3.589 -8.016,8.016 v 280.565 c 0,4.427 3.589,8.016 8.016,8.016 h 176.355 c 10.445,0 19.722,4.993 25.577,12.723 1.658,2.189 4.073,3.283 6.488,3.283 v -7.99 c 0,-17.709 -14.356,-32.065 -32.065,-32.065 H 79.645 c -8.854,0 -16.032,-7.177 -16.032,-16.032 z" />
      <path
         id="path19360"
         fill="#ffc269"
         d="m 360.21,123.734 h 72.145 v 80.161 H 360.21 Z" />
      <path
         id="path19362"
         fill="#ffa95f"
         d="m 408.306,179.847 c -13.282,0 -24.048,-10.767 -24.048,-24.048 V 123.734 H 360.21 v 80.161 h 72.145 v -24.048 z" />
    </g>
    <g
       id="g19396">
      <path
         id="path19366"
         d="m 488.468,100.202 h -8.532 V 75.637 c 0,-4.142 -3.358,-7.5 -7.5,-7.5 H 288.064 c -13.177,0 -24.87,6.475 -32.064,16.411 -7.194,-9.936 -18.888,-16.411 -32.064,-16.411 H 39.564 c -4.142,0 -7.5,3.358 -7.5,7.5 v 24.564 H 23.532 C 10.557,100.202 0,110.758 0,123.734 v 264.532 c 0,12.976 10.557,23.532 23.532,23.532 h 185.6 c 3.514,18.243 19.599,32.064 38.852,32.064 h 16.032 c 19.252,0 35.337,-13.822 38.852,-32.064 h 185.6 c 12.976,0 23.532,-10.557 23.532,-23.532 V 123.734 c 0,-12.976 -10.557,-23.532 -23.532,-23.532 z M 223.936,83.137 c 13.545,0 24.564,11.02 24.564,24.564 v 240.484 c 0,4.142 3.358,7.5 7.5,7.5 4.142,0 7.5,-3.358 7.5,-7.5 V 107.702 c 0,-13.545 11.02,-24.564 24.564,-24.564 H 464.935 V 364.735 H 288.064 c -13.177,0 -24.87,6.475 -32.064,16.411 -7.194,-9.936 -18.888,-16.411 -32.064,-16.411 H 47.064 V 83.137 Z M 497,388.266 c 0,4.705 -3.828,8.532 -8.532,8.532 H 296.081 c -4.142,0 -7.5,3.358 -7.5,7.5 0,13.545 -11.02,24.564 -24.564,24.564 h -16.032 c -13.545,0 -24.564,-11.02 -24.564,-24.564 0,-4.142 -3.358,-7.5 -7.5,-7.5 H 23.532 C 18.827,396.798 15,392.97 15,388.266 V 123.734 c 0,-4.705 3.828,-8.532 8.532,-8.532 h 8.532 v 257.032 c 0,4.142 3.358,7.5 7.5,7.5 h 184.371 c 13.545,0 24.564,11.02 24.564,24.564 0,4.142 3.358,7.5 7.5,7.5 4.142,0 7.5,-3.358 7.5,-7.5 0,-13.545 11.02,-24.564 24.564,-24.564 h 184.371 c 4.142,0 7.5,-3.358 7.5,-7.5 V 115.202 h 8.532 c 4.705,0 8.532,3.828 8.532,8.532 v 264.532 z" />
      <path
         id="path19368"
         d="m 79.645,131.234 h 136.274 c 4.142,0 7.5,-3.358 7.5,-7.5 0,-4.142 -3.358,-7.5 -7.5,-7.5 H 79.645 c -4.142,0 -7.5,3.358 -7.5,7.5 0,4.142 3.358,7.5 7.5,7.5 z" />
      <path
         id="path19370"
         d="m 79.645,171.314 h 136.274 c 4.142,0 7.5,-3.358 7.5,-7.5 0,-4.142 -3.358,-7.5 -7.5,-7.5 H 79.645 c -4.142,0 -7.5,3.358 -7.5,7.5 0,4.142 3.358,7.5 7.5,7.5 z" />
      <path
         id="path19372"
         d="m 79.645,211.395 h 136.274 c 4.142,0 7.5,-3.358 7.5,-7.5 0,-4.142 -3.358,-7.5 -7.5,-7.5 H 79.645 c -4.142,0 -7.5,3.358 -7.5,7.5 0,4.142 3.358,7.5 7.5,7.5 z" />
      <path
         id="path19374"
         d="m 215.919,236.476 h -24.048 c -4.142,0 -7.5,3.358 -7.5,7.5 0,4.142 3.358,7.5 7.5,7.5 h 24.048 c 4.142,0 7.5,-3.358 7.5,-7.5 0,-4.142 -3.357,-7.5 -7.5,-7.5 z" />
      <path
         id="path19376"
         d="m 215.919,276.557 h -24.048 c -4.142,0 -7.5,3.358 -7.5,7.5 0,4.142 3.358,7.5 7.5,7.5 h 24.048 c 4.142,0 7.5,-3.358 7.5,-7.5 0,-4.142 -3.357,-7.5 -7.5,-7.5 z" />
      <path
         id="path19378"
         d="m 215.919,316.637 h -24.048 c -4.142,0 -7.5,3.358 -7.5,7.5 0,4.142 3.358,7.5 7.5,7.5 h 24.048 c 4.142,0 7.5,-3.358 7.5,-7.5 0,-4.142 -3.357,-7.5 -7.5,-7.5 z" />
      <path
         id="path19380"
         d="m 79.645,331.637 h 72.146 c 4.142,0 7.5,-3.358 7.5,-7.5 v -80.162 c 0,-4.142 -3.358,-7.5 -7.5,-7.5 H 79.645 c -4.142,0 -7.5,3.358 -7.5,7.5 v 80.162 c 0,4.142 3.358,7.5 7.5,7.5 z m 7.5,-80.161 h 57.146 v 65.162 H 87.145 Z" />
      <path
         id="path19382"
         d="m 296.081,331.637 h 136.274 c 4.142,0 7.5,-3.358 7.5,-7.5 0,-4.142 -3.358,-7.5 -7.5,-7.5 H 296.081 c -4.142,0 -7.5,3.358 -7.5,7.5 0,4.142 3.357,7.5 7.5,7.5 z" />
      <path
         id="path19384"
         d="m 296.081,291.557 h 136.274 c 4.142,0 7.5,-3.358 7.5,-7.5 0,-4.142 -3.358,-7.5 -7.5,-7.5 H 296.081 c -4.142,0 -7.5,3.358 -7.5,7.5 0,4.142 3.357,7.5 7.5,7.5 z" />
      <path
         id="path19386"
         d="m 296.081,251.476 h 136.274 c 4.142,0 7.5,-3.358 7.5,-7.5 0,-4.142 -3.358,-7.5 -7.5,-7.5 H 296.081 c -4.142,0 -7.5,3.358 -7.5,7.5 0,4.142 3.357,7.5 7.5,7.5 z" />
      <path
         id="path19388"
         d="m 296.081,211.395 h 24.048 c 4.142,0 7.5,-3.358 7.5,-7.5 0,-4.142 -3.358,-7.5 -7.5,-7.5 h -24.048 c -4.142,0 -7.5,3.358 -7.5,7.5 0,4.142 3.357,7.5 7.5,7.5 z" />
      <path
         id="path19390"
         d="m 296.081,171.314 h 24.048 c 4.142,0 7.5,-3.358 7.5,-7.5 0,-4.142 -3.358,-7.5 -7.5,-7.5 h -24.048 c -4.142,0 -7.5,3.358 -7.5,7.5 0,4.142 3.357,7.5 7.5,7.5 z" />
      <path
         id="path19392"
         d="m 296.081,131.234 h 24.048 c 4.142,0 7.5,-3.358 7.5,-7.5 0,-4.142 -3.358,-7.5 -7.5,-7.5 h -24.048 c -4.142,0 -7.5,3.358 -7.5,7.5 0,4.142 3.357,7.5 7.5,7.5 z" />
      <path
         id="path19394"
         d="m 360.209,211.395 h 72.146 c 4.142,0 7.5,-3.358 7.5,-7.5 v -80.161 c 0,-4.142 -3.358,-7.5 -7.5,-7.5 h -72.146 c -4.142,0 -7.5,3.358 -7.5,7.5 v 16.029 c 0,4.142 3.358,7.5 7.5,7.5 4.142,0 7.5,-3.358 7.5,-7.5 v -8.529 h 57.146 v 65.161 h -57.146 v -24.566 c 0,-4.142 -3.358,-7.5 -7.5,-7.5 -4.142,0 -7.5,3.358 -7.5,7.5 v 32.066 c 0,4.142 3.358,7.5 7.5,7.5 z" />
    </g>
  </g>
</svg>
