<svg width="512" viewBox="0 0 512 512.00001" height="512" enable-background="new 0 0 512 512" id="Capa_1" xmlns="http://www.w3.org/2000/svg" xmlns:svg="http://www.w3.org/2000/svg" xmlns:rdf="http://www.w3.org/1999/02/22-rdf-syntax-ns#" xmlns:cc="http://creativecommons.org/ns#" xmlns:dc="http://purl.org/dc/elements/1.1/"><defs id="defs19403"/><g transform="translate(0,5e-4)" id="g19398"><g id="g19364"><path id="path19348" fill="#b3e59f" d="M488.468 107.702H23.532c-8.854.0-16.032 7.178-16.032 16.032v264.532c0 8.854 7.178 16.032 16.032 16.032h192.387c0 17.708 14.356 32.065 32.065 32.065h16.032c17.709.0 32.065-14.356 32.065-32.065h192.387c8.854.0 16.032-7.178 16.032-16.032V123.734c0-8.855-7.178-16.032-16.032-16.032z"/><path id="path19350" fill="#95d6a4" d="m23.532 107.702c-8.854.0-16.032 7.178-16.032 16.032v264.532c0 8.854 7.179 16.032 16.032 16.032h192.387c0 17.708 14.355 32.065 32.065 32.065h16.032c14.924.0 27.355-10.243 30.931-24.048H291.633 256V380.25L39.565 107.702z"/><path id="path19352" fill="#faf5dc" d="m288.065 75.637c-11.384.0-21.383 5.933-27.073 14.875-2.399 3.771-7.585 3.771-9.984.0C245.318 81.57 235.32 75.637 223.935 75.637H47.581c-4.427.0-8.016 3.589-8.016 8.016v280.565c0 4.427 3.589 8.016 8.016 8.016h176.355c10.444.0 19.722 4.993 25.577 12.723 3.316 4.378 9.66 4.378 12.976.0 5.854-7.73 15.132-12.723 25.577-12.723h176.355c4.427.0 8.016-3.589 8.016-8.016V83.653c0-4.427-3.589-8.016-8.016-8.016z"/><path id="path19354" fill="#c3ddff" d="m79.645 243.976h72.145v80.161H79.645z"/><path id="path19356" fill="#a4ccff" d="m127.742 300.089c-13.282.0-24.048-10.767-24.048-24.048V243.976H79.645v80.161h72.145v-24.048z"/><path id="path19358" fill="#f5ebcd" d="M63.613 332.153V75.637H47.581c-4.427.0-8.016 3.589-8.016 8.016v280.565c0 4.427 3.589 8.016 8.016 8.016h176.355c10.445.0 19.722 4.993 25.577 12.723 1.658 2.189 4.073 3.283 6.488 3.283v-7.99c0-17.709-14.356-32.065-32.065-32.065H79.645c-8.854.0-16.032-7.177-16.032-16.032z"/><path id="path19360" fill="#ffc269" d="m360.21 123.734h72.145v80.161H360.21z"/><path id="path19362" fill="#ffa95f" d="m408.306 179.847c-13.282.0-24.048-10.767-24.048-24.048V123.734H360.21v80.161h72.145v-24.048z"/></g><g id="g19396"><path id="path19366" d="m488.468 100.202h-8.532V75.637c0-4.142-3.358-7.5-7.5-7.5H288.064c-13.177.0-24.87 6.475-32.064 16.411-7.194-9.936-18.888-16.411-32.064-16.411H39.564c-4.142.0-7.5 3.358-7.5 7.5v24.564H23.532C10.557 100.202.0 110.758.0 123.734v264.532c0 12.976 10.557 23.532 23.532 23.532h185.6c3.514 18.243 19.599 32.064 38.852 32.064h16.032c19.252.0 35.337-13.822 38.852-32.064h185.6c12.976.0 23.532-10.557 23.532-23.532V123.734c0-12.976-10.557-23.532-23.532-23.532zM223.936 83.137c13.545.0 24.564 11.02 24.564 24.564v240.484c0 4.142 3.358 7.5 7.5 7.5s7.5-3.358 7.5-7.5V107.702c0-13.545 11.02-24.564 24.564-24.564H464.935V364.735H288.064c-13.177.0-24.87 6.475-32.064 16.411-7.194-9.936-18.888-16.411-32.064-16.411H47.064V83.137zM497 388.266c0 4.705-3.828 8.532-8.532 8.532H296.081c-4.142.0-7.5 3.358-7.5 7.5.0 13.545-11.02 24.564-24.564 24.564h-16.032c-13.545.0-24.564-11.02-24.564-24.564.0-4.142-3.358-7.5-7.5-7.5H23.532C18.827 396.798 15 392.97 15 388.266V123.734c0-4.705 3.828-8.532 8.532-8.532h8.532v257.032c0 4.142 3.358 7.5 7.5 7.5h184.371c13.545.0 24.564 11.02 24.564 24.564.0 4.142 3.358 7.5 7.5 7.5 4.142.0 7.5-3.358 7.5-7.5.0-13.545 11.02-24.564 24.564-24.564h184.371c4.142.0 7.5-3.358 7.5-7.5V115.202h8.532c4.705.0 8.532 3.828 8.532 8.532v264.532z"/><path id="path19368" d="m79.645 131.234h136.274c4.142.0 7.5-3.358 7.5-7.5s-3.358-7.5-7.5-7.5H79.645c-4.142.0-7.5 3.358-7.5 7.5s3.358 7.5 7.5 7.5z"/><path id="path19370" d="m79.645 171.314h136.274c4.142.0 7.5-3.358 7.5-7.5s-3.358-7.5-7.5-7.5H79.645c-4.142.0-7.5 3.358-7.5 7.5s3.358 7.5 7.5 7.5z"/><path id="path19372" d="m79.645 211.395h136.274c4.142.0 7.5-3.358 7.5-7.5s-3.358-7.5-7.5-7.5H79.645c-4.142.0-7.5 3.358-7.5 7.5s3.358 7.5 7.5 7.5z"/><path id="path19374" d="m215.919 236.476h-24.048c-4.142.0-7.5 3.358-7.5 7.5s3.358 7.5 7.5 7.5h24.048c4.142.0 7.5-3.358 7.5-7.5s-3.357-7.5-7.5-7.5z"/><path id="path19376" d="m215.919 276.557h-24.048c-4.142.0-7.5 3.358-7.5 7.5s3.358 7.5 7.5 7.5h24.048c4.142.0 7.5-3.358 7.5-7.5s-3.357-7.5-7.5-7.5z"/><path id="path19378" d="m215.919 316.637h-24.048c-4.142.0-7.5 3.358-7.5 7.5s3.358 7.5 7.5 7.5h24.048c4.142.0 7.5-3.358 7.5-7.5s-3.357-7.5-7.5-7.5z"/><path id="path19380" d="m79.645 331.637h72.146c4.142.0 7.5-3.358 7.5-7.5v-80.162c0-4.142-3.358-7.5-7.5-7.5H79.645c-4.142.0-7.5 3.358-7.5 7.5v80.162c0 4.142 3.358 7.5 7.5 7.5zm7.5-80.161h57.146v65.162H87.145z"/><path id="path19382" d="m296.081 331.637h136.274c4.142.0 7.5-3.358 7.5-7.5s-3.358-7.5-7.5-7.5H296.081c-4.142.0-7.5 3.358-7.5 7.5s3.357 7.5 7.5 7.5z"/><path id="path19384" d="m296.081 291.557h136.274c4.142.0 7.5-3.358 7.5-7.5s-3.358-7.5-7.5-7.5H296.081c-4.142.0-7.5 3.358-7.5 7.5s3.357 7.5 7.5 7.5z"/><path id="path19386" d="m296.081 251.476h136.274c4.142.0 7.5-3.358 7.5-7.5s-3.358-7.5-7.5-7.5H296.081c-4.142.0-7.5 3.358-7.5 7.5s3.357 7.5 7.5 7.5z"/><path id="path19388" d="m296.081 211.395h24.048c4.142.0 7.5-3.358 7.5-7.5s-3.358-7.5-7.5-7.5h-24.048c-4.142.0-7.5 3.358-7.5 7.5s3.357 7.5 7.5 7.5z"/><path id="path19390" d="m296.081 171.314h24.048c4.142.0 7.5-3.358 7.5-7.5s-3.358-7.5-7.5-7.5h-24.048c-4.142.0-7.5 3.358-7.5 7.5s3.357 7.5 7.5 7.5z"/><path id="path19392" d="m296.081 131.234h24.048c4.142.0 7.5-3.358 7.5-7.5s-3.358-7.5-7.5-7.5h-24.048c-4.142.0-7.5 3.358-7.5 7.5s3.357 7.5 7.5 7.5z"/><path id="path19394" d="m360.209 211.395h72.146c4.142.0 7.5-3.358 7.5-7.5v-80.161c0-4.142-3.358-7.5-7.5-7.5h-72.146c-4.142.0-7.5 3.358-7.5 7.5v16.029c0 4.142 3.358 7.5 7.5 7.5s7.5-3.358 7.5-7.5v-8.529h57.146v65.161h-57.146v-24.566c0-4.142-3.358-7.5-7.5-7.5s-7.5 3.358-7.5 7.5v32.066c0 4.142 3.358 7.5 7.5 7.5z"/></g></g></svg>